<svg height="510" width="720" xmlns="http://www.w3.org/2000/svg">
<rect height="510" fill="#555" width="720"></rect>
<text fill="#7f7" font-family="Courier New" font-size="12" xml:space="preserve">
<tspan x="10" y="26">5 megabytes installed</tspan>
<tspan x="10" y="42"></tspan>
<tspan x="10" y="58">node_modules</tspan>
<tspan x="10" y="74">└─┬ spotify-playlist@0.0.4 </tspan>
<tspan x="10" y="90">  ├─┬ cheerio@0.12.4 </tspan>
<tspan x="10" y="106">  │ ├─┬ cheerio-select@0.0.3 </tspan>
<tspan x="10" y="122">  │ │ └─┬ CSSselect@0.7.0 </tspan>
<tspan x="10" y="138">  │ │   ├── boolbase@1.0.0 </tspan>
<tspan x="10" y="154">  │ │   ├── CSSwhat@0.4.7 </tspan>
<tspan x="10" y="170">  │ │   ├── domutils@1.4.3 </tspan>
<tspan x="10" y="186">  │ │   └── nth-check@1.0.1 </tspan>
<tspan x="10" y="202">  │ ├── entities@0.5.0 </tspan>
<tspan x="10" y="218">  │ ├─┬ htmlparser2@3.1.4 </tspan>
<tspan x="10" y="234">  │ │ ├── domelementtype@1.3.0 </tspan>
<tspan x="10" y="250">  │ │ ├── domhandler@2.0.3 </tspan>
<tspan x="10" y="266">  │ │ ├── domutils@1.1.6 </tspan>
<tspan x="10" y="282">  │ │ └─┬ readable-stream@1.0.34 </tspan>
<tspan x="10" y="298">  │ │   ├── core-util-is@1.0.2 </tspan>
<tspan x="10" y="314">  │ │   ├── inherits@2.0.3 </tspan>
<tspan x="10" y="330">  │ │   ├── isarray@0.0.1 </tspan>
<tspan x="10" y="346">  │ │   └── string_decoder@0.10.31 </tspan>
<tspan x="10" y="362">  │ └── underscore@1.4.4 </tspan>
<tspan x="10" y="378">  ├─┬ restler@3.2.2 </tspan>
<tspan x="10" y="394">  │ ├── iconv-lite@0.2.11 </tspan>
<tspan x="10" y="410">  │ ├── qs@0.6.6 </tspan>
<tspan x="10" y="426">  │ ├─┬ xml2js@0.4.0 </tspan>
<tspan x="10" y="442">  │ │ ├── sax@0.5.8 </tspan>
<tspan x="10" y="458">  │ │ └── xmlbuilder@8.2.2 </tspan>
<tspan x="10" y="474">  │ └── yaml@0.2.3 </tspan>
<tspan x="10" y="490">  └── spotify-uri@0.1.1</tspan>
</text>
</svg>
